<svg width="56" height="56" viewBox="0 0 56 56" fill="none" xmlns="http://www.w3.org/2000/svg">
<rect width="56" height="56" rx="12" fill="url(#paint0_linear_790_1605)"/>
<rect width="56" height="56" rx="12" fill="url(#paint1_linear_790_1605)"/>
<rect x="0.5" y="0.5" width="55" height="55" rx="11.5" stroke="#DFDFDF" stroke-opacity="0.8"/>
<path d="M32.1149 38.0734C35.3457 35.1035 37.596 33.9659 41.9718 33.961C41.9671 38.3809 40.8512 40.6466 37.9014 43.8996C34.6237 46.964 32.3339 47.9955 28.0282 48C28.0282 43.6323 29.0645 41.3807 32.1149 38.0734Z" fill="white"/>
<path d="M18.1149 43.8592C21.3526 46.8356 23.5775 48 27.9718 48C27.9671 43.58 26.8512 41.286 23.9014 38.0331C20.6237 34.9686 18.3339 33.9371 14.0282 33.9327C14.0282 38.3003 15.0645 40.5519 18.1149 43.8592Z" fill="white"/>
<path d="M30.0162 47.7139L28.0282 48L28 47.9998L27.9718 48L26.0406 47.7139V22.2673H30.0162L30.0162 47.7139Z" fill="white"/>
<path d="M28.0284 8C35.5251 8 41.6024 14.1188 41.6024 21.6668C41.6024 28.0504 37.2555 33.4117 31.3793 34.9139V28.5484C33.9023 27.3007 35.6389 24.688 35.6389 21.6668C35.6389 17.4349 32.2316 14.0043 28.0284 14.0043C23.8252 14.0043 20.4178 17.4349 20.4178 21.6668C20.4178 25.8987 23.8252 29.3294 28.0284 29.3294C28.7161 29.3294 29.3825 29.2375 30.0162 29.0653V35.1881C29.3674 35.284 28.7037 35.3337 28.0284 35.3337C20.5317 35.3337 14.4544 29.2148 14.4544 21.6668C14.4544 14.1188 20.5317 8 28.0284 8Z" fill="white"/>
<defs>
<linearGradient id="paint0_linear_790_1605" x1="28" y1="56" x2="28" y2="0" gradientUnits="userSpaceOnUse">
<stop stop-color="#D9D9D9" stop-opacity="0.4"/>
<stop offset="1" stop-color="#EDEDED" stop-opacity="0.4"/>
</linearGradient>
<linearGradient id="paint1_linear_790_1605" x1="0" y1="28" x2="56" y2="28" gradientUnits="userSpaceOnUse">
<stop stop-color="#1D3F37"/>
<stop offset="1" stop-color="#63A7A1"/>
</linearGradient>
</defs>
</svg>
